<svg id="svg" version="1.1" xmlns="http://www.w3.org/2000/svg" xmlns:xlink="http://www.w3.org/1999/xlink" width="400" height="400" viewBox="0, 0, 400,400"><g id="svgg"><path id="path0" d="M185.625 5.333 C 92.897 12.218,17.760 82.975,6.116 174.375 C 4.996 183.170,4.844 186.239,4.845 200.000 C 4.848 247.995,19.699 289.273,50.056 325.668 C 113.643 401.902,226.276 417.831,309.063 362.298 C 387.681 309.560,416.954 208.580,378.984 121.094 C 360.591 78.714,323.455 41.157,281.250 22.251 C 276.900 20.302,275.762 19.817,272.344 18.450 C 246.218 8.005,214.416 3.195,185.625 5.333 M207.344 37.945 C 250.667 39.154,297.061 62.139,324.715 96.094 C 368.570 149.944,374.775 220.780,340.878 280.625 C 305.999 342.203,234.301 373.913,164.688 358.549 C 153.164 356.006,139.766 351.265,128.594 345.776 C 77.288 320.571,43.821 272.047,38.004 214.428 L 37.836 212.762 59.465 212.940 C 71.361 213.038,104.789 213.205,133.750 213.312 C 162.711 213.418,186.489 213.555,186.591 213.615 C 186.692 213.676,186.861 222.344,186.966 232.878 C 187.547 291.196,187.962 321.250,188.185 321.250 C 188.324 321.250,188.438 325.797,188.438 331.355 C 188.438 336.913,188.531 345.707,188.644 350.897 L 188.851 360.333 190.329 357.276 C 192.176 353.455,193.616 350.392,194.045 349.375 C 194.225 348.945,194.493 348.383,194.639 348.125 C 195.436 346.716,197.822 341.673,197.817 341.406 C 197.810 340.975,199.789 337.056,200.078 336.927 C 200.207 336.870,200.313 336.606,200.313 336.340 C 200.313 336.074,200.961 334.504,201.753 332.850 C 202.545 331.197,203.670 328.849,204.253 327.633 C 204.836 326.417,205.313 325.187,205.313 324.899 C 205.313 324.611,205.434 324.375,205.583 324.375 C 205.731 324.375,206.105 323.707,206.413 322.891 C 206.722 322.074,207.065 321.336,207.177 321.250 C 207.288 321.164,207.559 320.602,207.779 320.000 C 207.999 319.398,208.784 317.641,209.523 316.094 C 213.971 306.782,215.808 302.803,216.411 301.172 C 216.713 300.355,217.059 299.687,217.180 299.688 C 217.301 299.688,217.588 299.090,217.818 298.359 C 218.048 297.629,218.422 296.809,218.649 296.538 C 218.877 296.267,219.063 295.926,219.063 295.781 C 219.063 295.510,219.707 294.110,222.803 287.656 C 223.792 285.594,224.788 283.414,225.017 282.813 C 225.246 282.211,225.515 281.648,225.616 281.563 C 225.716 281.477,226.064 280.773,226.388 280.000 C 227.764 276.719,228.290 275.625,228.489 275.625 C 228.605 275.625,228.800 275.171,228.922 274.616 C 229.044 274.061,229.737 272.408,230.463 270.944 C 232.781 266.266,234.613 262.376,235.029 261.250 C 235.251 260.648,235.520 260.086,235.625 260.000 C 235.730 259.914,236.004 259.352,236.234 258.750 C 236.463 258.148,237.319 256.250,238.135 254.531 C 238.952 252.813,239.705 251.195,239.808 250.938 C 239.911 250.680,240.124 250.258,240.280 250.000 C 240.963 248.874,242.500 245.349,242.500 244.910 C 242.500 244.644,242.605 244.380,242.734 244.323 C 243.008 244.201,245.313 239.610,245.312 239.190 C 245.311 238.875,246.619 236.184,246.893 235.938 C 246.988 235.852,247.253 235.289,247.480 234.688 C 247.708 234.086,248.496 232.328,249.231 230.781 C 249.966 229.234,251.203 226.629,251.979 224.991 C 252.756 223.353,253.487 221.631,253.604 221.163 C 253.722 220.695,253.915 220.313,254.035 220.313 C 254.154 220.313,254.504 219.609,254.813 218.750 C 255.122 217.891,255.502 217.188,255.656 217.188 C 255.811 217.188,255.938 216.945,255.938 216.649 C 255.937 216.353,256.655 214.631,257.531 212.821 C 258.407 211.012,259.383 208.969,259.700 208.281 C 260.016 207.594,261.198 205.116,262.325 202.775 C 263.453 200.434,264.375 198.408,264.375 198.272 C 264.375 197.877,266.695 193.292,266.953 193.177 C 267.082 193.120,267.187 192.839,267.186 192.552 C 267.185 192.266,267.801 190.766,268.555 189.219 C 271.131 183.932,272.188 181.570,272.188 181.098 C 272.188 180.838,272.297 180.625,272.431 180.625 C 272.565 180.625,272.948 179.922,273.281 179.063 C 273.615 178.203,273.969 177.500,274.069 177.500 C 274.168 177.500,274.432 176.973,274.656 176.328 C 274.879 175.684,275.555 174.102,276.158 172.813 C 277.832 169.235,280.234 164.187,281.592 161.394 C 282.263 160.012,282.813 158.759,282.813 158.610 C 282.813 158.461,283.293 157.341,283.881 156.122 C 284.469 154.903,285.030 153.695,285.129 153.438 C 285.228 153.180,285.441 152.758,285.602 152.500 C 285.763 152.242,286.341 151.047,286.887 149.844 C 287.432 148.641,288.496 146.382,289.252 144.825 C 290.007 143.268,290.625 141.773,290.625 141.504 C 290.625 141.235,290.813 140.858,291.042 140.668 C 291.272 140.477,291.646 139.757,291.874 139.067 C 292.101 138.377,292.377 137.812,292.487 137.812 C 292.597 137.812,292.864 137.285,293.079 136.641 C 293.295 135.996,294.043 134.273,294.740 132.813 C 295.438 131.352,296.611 128.891,297.348 127.344 C 298.085 125.797,299.405 123.044,300.282 121.226 C 301.158 119.408,301.875 117.695,301.875 117.420 C 301.875 117.145,302.066 116.729,302.299 116.495 C 302.533 116.262,302.913 115.549,303.143 114.910 C 303.374 114.272,303.675 113.750,303.813 113.750 C 303.950 113.750,304.063 113.528,304.063 113.257 C 304.063 112.761,304.791 111.136,308.113 104.219 C 309.103 102.156,310.101 99.977,310.330 99.375 C 310.559 98.773,310.828 98.211,310.928 98.125 C 311.029 98.039,311.372 97.336,311.691 96.563 C 312.619 94.312,313.577 92.351,313.798 92.249 C 313.911 92.198,314.192 91.512,314.423 90.726 C 314.655 89.940,315.020 89.229,315.234 89.146 C 315.449 89.063,315.625 88.659,315.625 88.248 C 315.625 87.458,315.171 87.229,314.917 87.891 C 314.834 88.105,313.976 88.550,313.009 88.879 C 312.041 89.208,311.250 89.576,311.250 89.698 C 311.250 89.819,310.617 90.096,309.844 90.313 C 309.070 90.529,308.437 90.793,308.436 90.900 C 308.436 91.007,307.768 91.354,306.952 91.673 C 305.472 92.251,303.631 93.071,301.563 94.076 C 300.961 94.368,300.048 94.707,299.534 94.828 C 299.020 94.950,298.527 95.144,298.438 95.259 C 298.202 95.565,295.053 97.188,294.697 97.188 C 294.339 97.188,291.338 98.507,285.938 101.039 C 284.992 101.483,283.832 101.937,283.359 102.050 C 282.887 102.163,282.500 102.352,282.500 102.471 C 282.500 102.590,281.973 102.869,281.328 103.091 C 280.155 103.495,276.081 105.365,273.438 106.713 C 272.664 107.108,271.574 107.527,271.016 107.646 C 270.457 107.765,270.000 107.992,270.000 108.150 C 270.000 108.308,269.777 108.438,269.505 108.438 C 269.232 108.438,268.072 108.879,266.926 109.420 C 265.781 109.960,263.859 110.859,262.656 111.418 C 261.453 111.977,259.555 112.861,258.438 113.382 C 257.320 113.904,255.879 114.510,255.234 114.728 C 254.590 114.947,254.063 115.238,254.063 115.375 C 254.063 115.513,253.843 115.625,253.574 115.625 C 253.085 115.625,251.980 116.103,246.719 118.590 C 245.172 119.321,243.414 120.099,242.813 120.318 C 242.211 120.536,240.664 121.203,239.375 121.799 C 238.086 122.395,236.293 123.219,235.391 123.629 C 234.488 124.039,233.012 124.715,232.109 125.131 C 231.207 125.546,230.117 125.987,229.688 126.110 C 229.258 126.233,228.836 126.425,228.750 126.535 C 228.664 126.646,227.961 126.999,227.188 127.320 C 226.414 127.641,224.586 128.464,223.125 129.149 C 221.664 129.835,219.906 130.644,219.219 130.947 C 218.531 131.251,217.195 131.858,216.250 132.297 C 215.305 132.736,214.145 133.187,213.672 133.300 C 213.199 133.413,212.813 133.602,212.813 133.721 C 212.813 133.840,212.285 134.120,211.641 134.345 C 210.426 134.768,208.592 135.581,204.844 137.361 C 203.641 137.932,202.129 138.577,201.484 138.794 C 200.840 139.011,200.313 139.285,200.313 139.404 C 200.313 139.523,199.926 139.711,199.453 139.824 C 198.980 139.936,197.750 140.433,196.719 140.930 C 192.319 143.046,191.411 143.438,190.902 143.438 C 190.607 143.438,190.318 143.543,190.260 143.672 C 190.140 143.944,187.998 144.993,185.861 145.827 C 185.045 146.146,184.377 146.512,184.376 146.641 C 184.376 146.770,184.131 146.875,183.833 146.875 C 183.534 146.875,182.515 147.239,181.567 147.683 C 180.619 148.127,179.141 148.815,178.281 149.212 C 177.422 149.608,175.943 150.299,174.996 150.748 C 174.048 151.196,173.110 151.563,172.912 151.563 C 172.714 151.563,171.661 152.029,170.573 152.599 C 169.484 153.168,168.102 153.824,167.500 154.056 C 166.898 154.287,165.533 154.876,164.466 155.363 C 163.399 155.851,162.380 156.250,162.201 156.250 C 162.021 156.250,161.875 156.360,161.875 156.494 C 161.875 156.629,161.242 156.925,160.469 157.154 C 159.695 157.382,159.063 157.679,159.063 157.813 C 159.063 157.947,158.676 158.150,158.203 158.262 C 157.730 158.375,156.641 158.794,155.781 159.194 C 154.922 159.594,152.953 160.510,151.406 161.229 C 149.859 161.949,148.031 162.811,147.344 163.145 C 146.656 163.479,145.970 163.751,145.820 163.751 C 145.669 163.750,144.614 164.185,143.476 164.717 C 142.338 165.249,140.633 166.041,139.688 166.478 C 138.742 166.916,137.473 167.521,136.867 167.825 C 136.261 168.128,135.171 168.536,134.445 168.731 C 133.719 168.927,133.125 169.199,133.125 169.337 C 133.125 169.475,132.563 169.773,131.875 170.000 C 131.188 170.227,130.625 170.531,130.625 170.675 C 130.625 170.819,130.405 170.938,130.137 170.938 C 129.675 170.938,128.562 171.411,124.219 173.454 C 123.188 173.939,121.957 174.431,121.484 174.546 C 121.012 174.661,120.625 174.865,120.625 175.000 C 120.625 175.135,120.238 175.340,119.766 175.456 C 119.293 175.572,118.063 176.068,117.031 176.558 C 116.000 177.048,114.031 177.968,112.656 178.603 C 111.281 179.237,109.313 180.149,108.281 180.629 C 104.329 182.469,102.843 183.125,102.629 183.125 C 102.506 183.125,101.689 183.461,100.812 183.872 C 96.474 185.904,94.435 186.820,93.438 187.182 C 92.836 187.400,91.219 188.110,89.844 188.759 C 88.469 189.408,86.570 190.287,85.625 190.712 C 82.780 191.990,78.985 193.743,77.656 194.391 C 76.969 194.727,76.292 195.001,76.153 195.001 C 76.013 195.000,75.099 195.364,74.121 195.808 C 70.296 197.547,68.236 198.511,67.179 199.057 C 66.573 199.370,65.483 199.786,64.757 199.981 C 64.031 200.177,63.438 200.449,63.438 200.587 C 63.438 200.725,62.875 201.023,62.188 201.250 C 61.500 201.477,60.938 201.781,60.938 201.925 C 60.938 202.069,60.718 202.188,60.449 202.187 C 59.997 202.187,58.887 202.654,54.844 204.543 C 53.984 204.944,52.754 205.450,52.109 205.668 C 51.465 205.885,50.938 206.160,50.938 206.279 C 50.938 206.398,50.556 206.591,50.089 206.708 C 49.623 206.825,48.322 207.350,47.199 207.875 C 45.265 208.780,43.225 209.692,42.188 210.117 C 41.930 210.222,41.508 210.426,41.250 210.570 C 39.601 211.488,37.997 212.164,37.840 212.007 C 37.369 211.536,37.449 192.491,37.947 186.714 C 44.007 116.372,94.608 58.078,163.786 41.740 C 174.340 39.248,193.820 37.125,200.781 37.709 C 201.297 37.752,204.250 37.858,207.344 37.945 " stroke="none" fill="#047cd4" fill-rule="evenodd"></path><path id="path1" d="M193.594 37.852 C 106.259 40.940,36.544 114.298,37.548 202.053 C 37.667 212.423,37.633 212.230,39.161 211.286 C 39.749 210.922,40.442 210.625,40.702 210.625 C 40.961 210.625,41.329 210.438,41.519 210.209 C 41.709 209.980,42.675 209.524,43.666 209.195 C 44.658 208.866,45.539 208.519,45.625 208.425 C 45.882 208.144,49.130 206.632,50.391 206.207 C 51.035 205.990,51.563 205.715,51.562 205.596 C 51.562 205.477,51.949 205.285,52.422 205.169 C 52.895 205.053,53.984 204.630,54.844 204.230 C 55.703 203.830,57.180 203.143,58.125 202.704 C 59.070 202.264,60.230 201.813,60.703 201.700 C 61.176 201.587,61.562 201.392,61.562 201.266 C 61.563 201.140,62.125 200.852,62.813 200.625 C 63.500 200.398,64.063 200.094,64.063 199.950 C 64.063 199.806,64.279 199.688,64.544 199.688 C 65.057 199.688,68.295 198.289,70.625 197.061 C 71.398 196.653,72.488 196.223,73.047 196.104 C 73.605 195.985,74.062 195.769,74.062 195.624 C 74.063 195.480,74.590 195.198,75.234 194.998 C 76.420 194.632,76.789 194.470,81.563 192.239 C 84.918 190.671,87.351 189.592,88.750 189.052 C 89.352 188.819,89.914 188.543,90.000 188.438 C 90.086 188.332,90.648 188.062,91.250 187.837 C 91.852 187.612,92.906 187.176,93.594 186.867 C 95.528 185.998,98.105 184.831,100.059 183.938 C 101.036 183.491,102.056 183.125,102.324 183.125 C 102.593 183.125,102.813 183.007,102.813 182.863 C 102.813 182.718,103.375 182.414,104.063 182.188 C 104.750 181.961,105.313 181.657,105.313 181.512 C 105.313 181.368,105.541 181.250,105.821 181.250 C 106.303 181.250,108.182 180.426,112.310 178.402 C 113.322 177.906,114.400 177.500,114.705 177.500 C 115.011 177.500,115.307 177.393,115.365 177.263 C 115.486 176.986,118.677 175.312,119.082 175.313 C 119.412 175.313,122.554 173.926,127.813 171.461 C 128.758 171.017,129.918 170.563,130.391 170.450 C 130.863 170.337,131.250 170.142,131.250 170.016 C 131.250 169.890,131.813 169.602,132.500 169.375 C 133.188 169.148,133.750 168.844,133.750 168.700 C 133.750 168.556,133.970 168.438,134.238 168.438 C 134.691 168.438,135.800 167.971,139.844 166.082 C 140.703 165.681,141.934 165.175,142.578 164.957 C 143.223 164.740,143.750 164.460,143.750 164.336 C 143.750 164.212,144.277 163.948,144.922 163.748 C 146.133 163.373,146.665 163.142,151.406 160.919 C 156.316 158.617,157.316 158.174,158.516 157.770 C 159.160 157.552,159.688 157.277,159.688 157.159 C 159.688 157.040,160.069 156.847,160.536 156.730 C 161.002 156.613,162.303 156.087,163.426 155.562 C 164.550 155.037,166.031 154.360,166.719 154.057 C 167.406 153.755,168.769 153.140,169.746 152.691 C 170.724 152.242,171.673 151.875,171.856 151.875 C 172.038 151.875,172.188 151.734,172.188 151.563 C 172.188 151.391,172.398 151.250,172.655 151.250 C 173.176 151.250,177.944 149.156,181.563 147.339 C 182.336 146.950,183.426 146.535,183.984 146.416 C 184.543 146.298,185.000 146.099,185.000 145.975 C 185.000 145.852,185.527 145.575,186.172 145.361 C 186.816 145.147,188.047 144.633,188.906 144.219 C 192.762 142.363,193.908 141.875,194.410 141.875 C 194.706 141.875,194.995 141.765,195.052 141.631 C 195.181 141.329,198.177 139.868,199.766 139.332 C 200.410 139.115,200.938 138.840,200.938 138.721 C 200.938 138.602,201.319 138.409,201.786 138.292 C 202.252 138.175,203.553 137.650,204.676 137.125 C 205.800 136.600,207.703 135.712,208.906 135.151 C 210.109 134.590,211.621 133.947,212.266 133.721 C 212.910 133.496,213.438 133.200,213.438 133.062 C 213.438 132.925,213.657 132.813,213.926 132.813 C 214.194 132.813,215.178 132.461,216.113 132.031 C 218.967 130.719,221.040 129.807,222.188 129.360 C 222.789 129.125,223.462 128.756,223.682 128.541 C 223.902 128.326,224.570 128.058,225.166 127.946 C 225.762 127.834,226.250 127.649,226.250 127.534 C 226.250 127.419,226.953 127.052,227.813 126.719 C 228.672 126.385,229.375 126.003,229.375 125.869 C 229.375 125.735,229.586 125.625,229.843 125.625 C 230.269 125.625,231.631 125.048,236.094 122.976 C 239.975 121.174,241.229 120.625,241.465 120.626 C 241.605 120.626,242.281 120.359,242.969 120.032 C 243.656 119.705,245.414 118.869,246.875 118.174 C 248.336 117.478,250.059 116.733,250.703 116.517 C 251.348 116.301,251.875 116.014,251.875 115.879 C 251.875 115.744,252.508 115.475,253.281 115.280 C 254.055 115.085,254.688 114.817,254.688 114.684 C 254.688 114.551,255.074 114.351,255.547 114.239 C 256.020 114.127,257.250 113.629,258.281 113.132 C 259.313 112.636,261.281 111.716,262.656 111.089 C 264.031 110.461,266.000 109.543,267.031 109.050 C 268.063 108.556,269.293 108.061,269.766 107.949 C 270.238 107.836,270.625 107.619,270.625 107.466 C 270.625 107.313,270.845 107.188,271.113 107.188 C 271.593 107.188,272.964 106.598,277.372 104.495 C 278.591 103.913,279.822 103.438,280.107 103.438 C 280.392 103.438,280.625 103.319,280.625 103.175 C 280.625 103.031,281.188 102.727,281.875 102.500 C 282.563 102.273,283.125 101.969,283.125 101.825 C 283.125 101.681,283.342 101.563,283.607 101.563 C 284.120 101.563,287.358 100.164,289.688 98.936 C 290.461 98.528,291.551 98.098,292.109 97.979 C 292.668 97.860,293.125 97.636,293.125 97.481 C 293.125 97.326,293.512 97.110,293.984 97.001 C 295.032 96.759,298.866 94.935,299.010 94.609 C 299.068 94.480,299.310 94.375,299.549 94.375 C 299.789 94.375,300.922 93.946,302.068 93.421 C 303.213 92.896,304.553 92.386,305.044 92.288 C 305.536 92.190,305.938 92.017,305.938 91.905 C 305.938 91.792,306.641 91.427,307.500 91.094 C 308.359 90.760,309.063 90.378,309.063 90.244 C 309.063 90.110,309.291 90.000,309.571 90.000 C 309.850 90.000,310.909 89.578,311.924 89.063 C 312.938 88.547,313.975 88.125,314.228 88.125 C 314.481 88.125,314.688 87.984,314.688 87.813 C 314.688 87.641,314.898 87.500,315.156 87.500 C 315.979 87.500,315.675 88.807,314.134 91.889 C 313.314 93.529,312.447 95.463,312.209 96.186 C 311.970 96.908,311.685 97.500,311.575 97.500 C 311.465 97.500,311.192 98.027,310.968 98.672 C 310.744 99.316,309.748 101.531,308.754 103.594 C 305.168 111.041,304.120 113.301,303.719 114.453 C 303.495 115.098,303.203 115.625,303.071 115.625 C 302.938 115.625,302.605 116.398,302.330 117.344 C 302.055 118.289,301.723 119.062,301.590 119.063 C 301.458 119.063,301.164 119.625,300.938 120.313 C 300.711 121.000,300.435 121.563,300.325 121.563 C 300.215 121.563,299.949 122.090,299.733 122.734 C 299.517 123.379,298.726 125.172,297.975 126.719 C 295.136 132.565,293.790 135.514,293.583 136.337 C 293.466 136.805,293.272 137.188,293.153 137.188 C 293.034 137.187,292.683 137.891,292.374 138.750 C 292.065 139.609,291.702 140.312,291.568 140.312 C 291.434 140.312,291.165 140.945,290.970 141.719 C 290.775 142.492,290.477 143.125,290.308 143.125 C 290.139 143.125,290.000 143.284,290.000 143.477 C 290.000 143.671,289.578 144.726,289.063 145.821 C 288.547 146.916,287.703 148.709,287.188 149.804 C 286.672 150.899,286.250 152.009,286.250 152.271 C 286.250 152.532,286.039 152.827,285.781 152.926 C 285.523 153.024,285.313 153.301,285.313 153.540 C 285.313 153.779,284.892 154.803,284.379 155.815 C 283.866 156.828,283.444 157.832,283.441 158.047 C 283.439 158.262,283.297 158.438,283.125 158.438 C 282.953 158.438,282.813 158.659,282.813 158.931 C 282.813 159.423,282.026 161.184,278.915 167.656 C 276.126 173.460,275.366 175.145,275.145 176.027 C 275.028 176.493,274.838 176.875,274.722 176.875 C 274.607 176.875,274.240 177.578,273.906 178.438 C 273.573 179.297,273.207 180.000,273.093 180.000 C 272.980 180.000,272.727 180.633,272.533 181.406 C 272.338 182.180,272.068 182.813,271.932 182.813 C 271.797 182.812,271.433 183.516,271.124 184.375 C 270.815 185.234,270.436 185.938,270.281 185.938 C 270.127 185.938,270.001 186.184,270.002 186.484 C 270.002 186.785,269.390 188.297,268.640 189.844 C 265.669 195.974,264.426 198.658,263.901 200.078 C 263.599 200.895,263.254 201.562,263.133 201.563 C 263.012 201.563,262.727 202.125,262.500 202.813 C 262.273 203.500,261.985 204.063,261.859 204.063 C 261.733 204.063,261.536 204.449,261.421 204.922 C 261.214 205.772,260.581 207.187,257.963 212.656 C 256.036 216.683,255.000 219.035,255.000 219.384 C 255.000 219.551,254.888 219.688,254.750 219.688 C 254.613 219.688,254.323 220.215,254.105 220.859 C 253.618 222.303,252.139 225.411,251.835 225.628 C 251.712 225.716,251.508 226.208,251.382 226.722 C 251.255 227.236,250.562 228.852,249.841 230.313 C 246.894 236.284,245.650 238.966,245.310 240.078 C 245.113 240.723,244.844 241.250,244.713 241.250 C 244.582 241.250,244.289 241.813,244.063 242.500 C 243.836 243.187,243.547 243.750,243.421 243.750 C 243.296 243.750,243.099 244.137,242.983 244.609 C 242.777 245.457,241.173 249.087,240.602 250.000 C 240.441 250.258,240.229 250.680,240.131 250.938 C 240.034 251.195,239.349 252.672,238.609 254.219 C 237.869 255.766,237.078 257.523,236.853 258.125 C 236.627 258.727,236.360 259.289,236.259 259.375 C 236.159 259.461,235.813 260.164,235.491 260.938 C 234.485 263.356,233.645 265.150,233.441 265.313 C 233.334 265.398,233.058 265.961,232.829 266.563 C 232.600 267.164,231.746 269.063,230.932 270.781 C 228.325 276.286,227.281 278.567,226.856 279.688 C 226.628 280.289,226.355 280.852,226.250 280.938 C 226.145 281.023,225.871 281.586,225.642 282.188 C 225.413 282.789,224.416 284.969,223.425 287.031 C 220.136 293.880,219.375 295.572,219.375 296.036 C 219.375 296.289,219.182 296.570,218.946 296.660 C 218.710 296.751,218.422 297.329,218.307 297.944 C 218.191 298.559,217.982 299.063,217.841 299.063 C 217.700 299.062,217.333 299.730,217.024 300.547 C 216.716 301.363,216.374 302.102,216.266 302.188 C 216.157 302.273,215.875 302.941,215.640 303.672 C 215.405 304.402,215.123 305.000,215.013 305.000 C 214.903 305.000,214.636 305.527,214.421 306.172 C 214.205 306.816,213.420 308.609,212.677 310.156 C 211.934 311.703,210.685 314.305,209.903 315.938 C 209.121 317.570,208.386 319.293,208.269 319.766 C 208.153 320.238,207.960 320.625,207.840 320.625 C 207.721 320.625,207.371 321.328,207.062 322.188 C 206.753 323.047,206.390 323.750,206.256 323.750 C 206.122 323.750,205.852 324.383,205.658 325.156 C 205.463 325.930,205.165 326.563,204.996 326.563 C 204.826 326.563,204.688 326.712,204.688 326.894 C 204.687 327.077,204.321 328.026,203.873 329.004 C 202.700 331.565,200.448 336.361,199.200 338.955 C 198.609 340.184,198.125 341.415,198.125 341.689 C 198.125 341.963,197.984 342.188,197.813 342.188 C 197.641 342.188,197.500 342.350,197.500 342.550 C 197.500 342.749,197.019 343.909,196.432 345.128 C 195.844 346.347,195.282 347.555,195.184 347.813 C 195.085 348.070,194.879 348.492,194.727 348.750 C 194.574 349.008,193.790 350.625,192.983 352.344 C 190.371 357.910,189.226 360.107,188.876 360.221 C 188.458 360.357,188.205 348.708,187.948 317.500 C 187.848 305.383,187.650 295.188,187.507 294.844 C 187.280 294.297,186.535 235.414,186.555 219.609 L 186.563 213.750 177.578 213.748 C 138.735 213.741,61.386 213.296,61.302 213.080 C 61.136 212.653,56.119 212.756,55.680 213.195 C 55.378 213.497,55.168 213.497,54.684 213.195 C 53.946 212.734,49.183 212.677,48.906 213.125 C 48.800 213.297,48.370 213.438,47.950 213.438 C 47.531 213.438,47.188 213.297,47.188 213.125 C 47.188 212.931,45.422 212.813,42.515 212.813 L 37.842 212.813 38.007 214.453 C 43.404 268.058,73.287 314.665,118.906 340.628 C 128.386 346.022,136.607 349.761,147.500 353.630 C 180.748 365.440,219.993 365.332,253.281 353.338 C 288.116 340.788,315.428 319.683,334.843 290.313 C 375.195 229.272,371.228 153.207,324.715 96.094 C 297.061 62.139,250.667 39.154,207.344 37.945 C 204.250 37.858,201.297 37.752,200.781 37.709 C 200.266 37.666,197.031 37.730,193.594 37.852 " stroke="none" fill="#7cc4fc" fill-rule="evenodd"></path><path id="path2" d="M123.750 213.438 L 122.031 213.648 123.653 213.699 C 124.546 213.727,125.363 213.609,125.469 213.438 C 125.575 213.266,125.618 213.148,125.565 213.176 C 125.512 213.204,124.695 213.322,123.750 213.438 M136.205 213.517 C 136.335 213.647,147.754 213.718,161.580 213.674 L 186.719 213.594 161.344 213.437 C 147.387 213.352,136.075 213.388,136.205 213.517 M187.018 254.688 C 187.018 261.820,187.059 264.738,187.109 261.172 C 187.159 257.605,187.159 251.770,187.109 248.203 C 187.059 244.637,187.018 247.555,187.018 254.688 " stroke="none" fill="#4ba7ef" fill-rule="evenodd"></path><path id="path3" d="M314.688 87.760 C 314.688 87.961,314.485 88.125,314.237 88.125 C 313.990 88.125,313.708 88.253,313.612 88.408 C 313.515 88.564,313.720 88.618,314.067 88.527 C 314.763 88.345,315.166 87.874,314.875 87.583 C 314.772 87.480,314.688 87.560,314.688 87.760 M301.172 93.929 C 300.004 94.563,300.075 94.827,301.250 94.219 C 301.766 93.952,302.188 93.667,302.188 93.586 C 302.188 93.385,302.154 93.396,301.172 93.929 M295.093 96.689 C 293.715 97.191,293.433 97.547,294.702 97.183 C 295.272 97.020,295.882 96.743,296.057 96.568 C 296.421 96.204,296.428 96.203,295.093 96.689 M272.734 106.741 C 271.566 107.375,271.637 107.639,272.813 107.031 C 273.328 106.765,273.750 106.480,273.750 106.398 C 273.750 106.197,273.716 106.208,272.734 106.741 M306.328 107.891 C 305.992 108.809,306.000 108.848,306.416 108.300 C 306.813 107.775,307.048 106.875,306.787 106.875 C 306.739 106.875,306.532 107.332,306.328 107.891 M244.219 119.542 C 243.434 119.920,243.408 119.963,244.063 119.806 C 244.492 119.702,244.977 119.492,245.141 119.340 C 245.546 118.961,245.323 119.010,244.219 119.542 M237.013 122.673 C 236.416 123.152,236.416 123.155,237.031 122.872 C 237.375 122.714,237.867 122.506,238.125 122.411 C 238.530 122.261,238.527 122.233,238.107 122.212 C 237.839 122.199,237.346 122.406,237.013 122.673 M293.741 134.704 C 293.552 135.057,293.442 135.558,293.496 135.817 C 293.550 136.077,293.749 135.788,293.938 135.176 C 294.324 133.924,294.252 133.750,293.741 134.704 M202.969 137.980 C 202.453 138.216,202.250 138.416,202.518 138.423 C 202.786 138.431,203.279 138.231,203.612 137.979 C 204.353 137.418,204.195 137.419,202.969 137.980 M290.771 141.094 C 290.691 141.352,290.556 141.781,290.472 142.047 C 290.388 142.314,290.442 142.457,290.591 142.365 C 290.741 142.272,290.930 141.843,291.013 141.411 C 291.176 140.557,291.008 140.336,290.771 141.094 M167.325 153.923 C 166.728 154.402,166.729 154.405,167.344 154.122 C 167.688 153.964,168.180 153.756,168.438 153.661 C 168.842 153.511,168.840 153.483,168.419 153.462 C 168.151 153.449,167.659 153.656,167.325 153.923 M267.969 190.313 C 267.702 190.828,267.554 191.250,267.640 191.250 C 267.726 191.250,268.015 190.828,268.281 190.313 C 268.548 189.797,268.696 189.375,268.610 189.375 C 268.524 189.375,268.235 189.797,267.969 190.313 M76.031 194.721 C 75.481 194.880,74.956 195.131,74.865 195.279 C 74.682 195.574,76.732 194.935,77.077 194.589 C 77.324 194.343,77.349 194.340,76.031 194.721 M53.594 204.855 C 53.078 205.091,52.875 205.291,53.143 205.298 C 53.411 205.306,53.904 205.106,54.237 204.854 C 54.978 204.293,54.820 204.294,53.594 204.855 M186.632 227.560 C 186.594 235.241,186.668 241.591,186.797 241.671 C 187.010 241.803,187.006 231.376,186.788 218.594 C 186.741 215.844,186.671 219.878,186.632 227.560 M242.287 245.547 C 241.964 246.585,241.973 246.649,242.367 246.112 C 242.740 245.604,242.999 244.375,242.733 244.375 C 242.689 244.375,242.488 244.902,242.287 245.547 M236.859 257.075 C 236.686 257.528,236.603 257.957,236.674 258.028 C 236.745 258.099,236.952 257.728,237.135 257.203 C 237.541 256.038,237.296 255.923,236.859 257.075 M221.015 291.328 C 220.679 292.246,220.688 292.286,221.103 291.737 C 221.501 291.212,221.735 290.313,221.475 290.313 C 221.427 290.313,221.220 290.770,221.015 291.328 M213.802 306.859 C 213.620 307.383,213.536 307.813,213.618 307.813 C 213.829 307.813,214.418 306.189,214.264 306.034 C 214.193 305.964,213.985 306.335,213.802 306.859 M208.429 318.141 C 208.240 318.494,208.130 318.995,208.183 319.255 C 208.237 319.515,208.436 319.226,208.625 318.614 C 209.012 317.362,208.939 317.187,208.429 318.141 M188.268 334.375 C 188.268 341.680,188.309 344.668,188.359 341.016 C 188.409 337.363,188.409 331.387,188.359 327.734 C 188.309 324.082,188.268 327.070,188.268 334.375 " stroke="none" fill="#3c9cec" fill-rule="evenodd"></path><path id="path4" d="M76.304 213.359 C 84.670 213.406,98.451 213.406,106.929 213.359 C 115.407 213.313,108.563 213.275,91.719 213.275 C 74.875 213.275,67.939 213.313,76.304 213.359 M128.218 213.358 C 129.731 213.415,132.121 213.415,133.531 213.357 C 134.940 213.299,133.703 213.253,130.781 213.253 C 127.859 213.253,126.706 213.300,128.218 213.358 M187.187 281.187 L 187.343 294.844 187.425 281.425 C 187.470 274.045,187.400 267.900,187.269 267.769 C 187.138 267.638,187.101 273.676,187.187 281.187 M188.569 354.063 C 188.569 357.586,188.615 359.027,188.671 357.266 C 188.726 355.504,188.726 352.621,188.671 350.859 C 188.615 349.098,188.569 350.539,188.569 354.063 " stroke="none" fill="#61b4f4" fill-rule="evenodd"></path></g></svg>